<svg width="16" height="16" viewBox="0 0 16 16" fill="none" xmlns="http://www.w3.org/2000/svg">
	<path d="M8.75 4.9375V4.1875H7.25V4.9375H8.75ZM8 8H7.25V8.50777L7.72146 8.69636L8 8ZM9.90896 9.57136L10.6053 9.8499L11.1624 8.45719L10.466 8.17864L9.90896 9.57136ZM14.25 8C14.25 11.4518 11.4518 14.25 8 14.25V15.75C12.2802 15.75 15.75 12.2802 15.75 8H14.25ZM8 14.25C4.54822 14.25 1.75 11.4518 1.75 8H0.25C0.25 12.2802 3.71979 15.75 8 15.75V14.25ZM1.75 8C1.75 4.54822 4.54822 1.75 8 1.75V0.25C3.71979 0.25 0.25 3.71979 0.25 8H1.75ZM8 1.75C11.4518 1.75 14.25 4.54822 14.25 8H15.75C15.75 3.71979 12.2802 0.25 8 0.25V1.75ZM7.25 4.9375V8H8.75V4.9375H7.25ZM7.72146 8.69636L9.90896 9.57136L10.466 8.17864L8.27854 7.30364L7.72146 8.69636Z" fill="#FF4242" />
</svg>
