<svg width="13" height="18" viewBox="0 0 13 18" fill="none" xmlns="http://www.w3.org/2000/svg">
	<path d="M12 10.0003H13V8.00029H12V10.0003ZM9.8 9.00029V8.00029C9.36957 8.00029 8.98743 8.27572 8.85132 8.68407L9.8 9.00029ZM8.15 13.9503L7.20132 14.2665L8.15 17.1126L9.09868 14.2665L8.15 13.9503ZM4.85 4.05029L5.79868 3.73407L4.85 0.888015L3.90132 3.73407L4.85 4.05029ZM3.2 9.00029V10.0003C3.63043 10.0003 4.01257 9.72486 4.14868 9.31652L3.2 9.00029ZM1 8.00029H0V10.0003H1V8.00029ZM12 8.00029H9.8V10.0003H12V8.00029ZM8.85132 8.68407L7.20132 13.6341L9.09868 14.2665L10.7487 9.31652L8.85132 8.68407ZM9.09868 13.6341L5.79868 3.73407L3.90132 4.36652L7.20132 14.2665L9.09868 13.6341ZM3.90132 3.73407L2.25132 8.68407L4.14868 9.31652L5.79868 4.36652L3.90132 3.73407ZM3.2 8.00029H1V10.0003H3.2V8.00029Z" fill="#FF4242" />
</svg>
