<svg width="1260" height="459" viewBox="0 0 1260 459" fill="none" xmlns="http://www.w3.org/2000/svg">
	<mask id="mask0_1_658" style="mask-type:alpha" maskUnits="userSpaceOnUse" x="-1" y="0" width="1274" height="471">
		<rect x="-0.5" y="0.5" width="67" height="67" stroke="white" />
		<rect x="66.5" y="0.5" width="67" height="67" stroke="white" />
		<rect x="133.5" y="0.5" width="67" height="67" stroke="white" />
		<rect x="200.5" y="0.5" width="67" height="67" stroke="white" />
		<rect x="267.5" y="0.5" width="67" height="67" stroke="white" />
		<rect x="334.5" y="0.5" width="67" height="67" stroke="white" />
		<rect x="401.5" y="0.5" width="67" height="67" stroke="white" />
		<rect x="468.5" y="0.5" width="67" height="67" stroke="white" />
		<rect x="535.5" y="0.5" width="67" height="67" stroke="white" />
		<rect x="602.5" y="0.5" width="67" height="67" stroke="white" />
		<rect x="669.5" y="0.5" width="67" height="67" stroke="white" />
		<rect x="736.5" y="0.5" width="67" height="67" stroke="white" />
		<rect x="803.5" y="0.5" width="67" height="67" stroke="white" />
		<rect x="870.5" y="0.5" width="67" height="67" stroke="white" />
		<rect x="937.5" y="0.5" width="67" height="67" stroke="white" />
		<rect x="1004.5" y="0.5" width="67" height="67" stroke="white" />
		<rect x="1071.5" y="0.5" width="67" height="67" stroke="white" />
		<rect x="1138.5" y="0.5" width="67" height="67" stroke="white" />
		<rect x="1205.5" y="0.5" width="67" height="67" stroke="white" />
		<rect x="-0.5" y="67.5" width="67" height="67" stroke="white" />
		<rect x="66.5" y="67.5" width="67" height="67" stroke="white" />
		<rect x="133.5" y="67.5" width="67" height="67" stroke="white" />
		<rect x="200.5" y="67.5" width="67" height="67" stroke="white" />
		<rect x="267.5" y="67.5" width="67" height="67" stroke="white" />
		<rect x="334.5" y="67.5" width="67" height="67" stroke="white" />
		<rect x="401.5" y="67.5" width="67" height="67" stroke="white" />
		<rect x="468.5" y="67.5" width="67" height="67" stroke="white" />
		<rect x="535.5" y="67.5" width="67" height="67" stroke="white" />
		<rect x="602.5" y="67.5" width="67" height="67" stroke="white" />
		<rect x="669.5" y="67.5" width="67" height="67" stroke="white" />
		<rect x="736.5" y="67.5" width="67" height="67" stroke="white" />
		<rect x="803.5" y="67.5" width="67" height="67" stroke="white" />
		<rect x="870.5" y="67.5" width="67" height="67" stroke="white" />
		<rect x="937.5" y="67.5" width="67" height="67" stroke="white" />
		<rect x="1004.5" y="67.5" width="67" height="67" stroke="white" />
		<rect x="1071.5" y="67.5" width="67" height="67" stroke="white" />
		<rect x="1138.5" y="67.5" width="67" height="67" stroke="white" />
		<rect x="1205.5" y="67.5" width="67" height="67" stroke="white" />
		<rect x="-0.5" y="134.5" width="67" height="67" stroke="white" />
		<rect x="66.5" y="134.5" width="67" height="67" stroke="white" />
		<rect x="133.5" y="134.5" width="67" height="67" stroke="white" />
		<rect x="200.5" y="134.5" width="67" height="67" stroke="white" />
		<rect x="267.5" y="134.5" width="67" height="67" stroke="white" />
		<rect x="334.5" y="134.5" width="67" height="67" stroke="white" />
		<rect x="401.5" y="134.5" width="67" height="67" stroke="white" />
		<rect x="468.5" y="134.5" width="67" height="67" stroke="white" />
		<rect x="535.5" y="134.5" width="67" height="67" fill="white" fill-opacity="0.3" />
		<rect x="535.5" y="134.5" width="67" height="67" stroke="white" />
		<rect x="602.5" y="134.5" width="67" height="67" stroke="white" />
		<rect x="669.5" y="134.5" width="67" height="67" stroke="white" />
		<rect x="736.5" y="134.5" width="67" height="67" stroke="white" />
		<rect x="803.5" y="134.5" width="67" height="67" fill="white" fill-opacity="0.3" />
		<rect x="803.5" y="134.5" width="67" height="67" stroke="#151515" />
		<rect x="870.5" y="134.5" width="67" height="67" stroke="white" />
		<rect x="937.5" y="134.5" width="67" height="67" stroke="white" />
		<rect x="1004.5" y="134.5" width="67" height="67" stroke="white" />
		<rect x="1071.5" y="134.5" width="67" height="67" stroke="white" />
		<rect x="1138.5" y="134.5" width="67" height="67" stroke="white" />
		<rect x="1205.5" y="134.5" width="67" height="67" stroke="white" />
		<rect x="-0.5" y="201.5" width="67" height="67" stroke="white" />
		<rect x="66.5" y="201.5" width="67" height="67" stroke="white" />
		<rect x="133.5" y="201.5" width="67" height="67" stroke="white" />
		<rect x="200.5" y="201.5" width="67" height="67" stroke="white" />
		<rect x="267.5" y="201.5" width="67" height="67" stroke="white" />
		<rect x="334.5" y="201.5" width="67" height="67" fill="white" fill-opacity="0.3" />
		<rect x="334.5" y="201.5" width="67" height="67" stroke="white" />
		<rect x="401.5" y="201.5" width="67" height="67" stroke="white" />
		<rect x="468.5" y="201.5" width="67" height="67" stroke="white" />
		<rect x="535.5" y="201.5" width="67" height="67" stroke="white" />
		<rect x="602.5" y="201.5" width="67" height="67" stroke="white" />
		<rect x="669.5" y="201.5" width="67" height="67" fill="white" fill-opacity="0.3" />
		<rect x="669.5" y="201.5" width="67" height="67" stroke="white" />
		<rect x="736.5" y="201.5" width="67" height="67" stroke="white" />
		<rect x="803.5" y="201.5" width="67" height="67" stroke="white" />
		<rect x="870.5" y="201.5" width="67" height="67" stroke="white" />
		<rect x="937.5" y="201.5" width="67" height="67" stroke="white" />
		<rect x="1004.5" y="201.5" width="67" height="67" stroke="white" />
		<rect x="1071.5" y="201.5" width="67" height="67" stroke="white" />
		<rect x="1138.5" y="201.5" width="67" height="67" stroke="white" />
		<rect x="1205.5" y="201.5" width="67" height="67" stroke="white" />
		<rect x="-0.5" y="268.5" width="67" height="67" stroke="white" />
		<rect x="66.5" y="268.5" width="67" height="67" stroke="white" />
		<rect x="133.5" y="268.5" width="67" height="67" stroke="white" />
		<rect x="200.5" y="268.5" width="67" height="67" stroke="white" />
		<rect x="267.5" y="268.5" width="67" height="67" stroke="white" />
		<rect x="334.5" y="268.5" width="67" height="67" stroke="white" />
		<rect x="401.5" y="268.5" width="67" height="67" stroke="white" />
		<rect x="468.5" y="268.5" width="67" height="67" stroke="white" />
		<rect x="535.5" y="268.5" width="67" height="67" stroke="white" />
		<rect x="602.5" y="268.5" width="67" height="67" stroke="white" />
		<rect x="669.5" y="268.5" width="67" height="67" stroke="white" />
		<rect x="736.5" y="268.5" width="67" height="67" stroke="white" />
		<rect x="803.5" y="268.5" width="67" height="67" stroke="white" />
		<rect x="870.5" y="268.5" width="67" height="67" stroke="white" />
		<rect x="937.5" y="268.5" width="67" height="67" stroke="white" />
		<rect x="1004.5" y="268.5" width="67" height="67" stroke="white" />
		<rect x="1071.5" y="268.5" width="67" height="67" stroke="white" />
		<rect x="1138.5" y="268.5" width="67" height="67" stroke="white" />
		<rect x="1205.5" y="268.5" width="67" height="67" stroke="white" />
		<rect x="-0.5" y="335.5" width="67" height="67" stroke="white" />
		<rect x="66.5" y="335.5" width="67" height="67" stroke="white" />
		<rect x="133.5" y="335.5" width="67" height="67" stroke="white" />
		<rect x="200.5" y="335.5" width="67" height="67" stroke="white" />
		<rect x="267.5" y="335.5" width="67" height="67" stroke="white" />
		<rect x="334.5" y="335.5" width="67" height="67" stroke="white" />
		<rect x="401.5" y="335.5" width="67" height="67" stroke="white" />
		<rect x="468.5" y="335.5" width="67" height="67" stroke="white" />
		<rect x="535.5" y="335.5" width="67" height="67" stroke="white" />
		<rect x="602.5" y="335.5" width="67" height="67" stroke="white" />
		<rect x="669.5" y="335.5" width="67" height="67" stroke="white" />
		<rect x="736.5" y="335.5" width="67" height="67" stroke="white" />
		<rect x="803.5" y="335.5" width="67" height="67" stroke="white" />
		<rect x="870.5" y="335.5" width="67" height="67" stroke="white" />
		<rect x="937.5" y="335.5" width="67" height="67" stroke="white" />
		<rect x="1004.5" y="335.5" width="67" height="67" stroke="white" />
		<rect x="1071.5" y="335.5" width="67" height="67" stroke="white" />
		<rect x="1138.5" y="335.5" width="67" height="67" stroke="white" />
		<rect x="1205.5" y="335.5" width="67" height="67" stroke="white" />
		<rect x="-0.5" y="403.5" width="67" height="67" stroke="white" />
		<rect x="66.5" y="403.5" width="67" height="67" stroke="white" />
		<rect x="133.5" y="403.5" width="67" height="67" stroke="white" />
		<rect x="200.5" y="403.5" width="67" height="67" stroke="white" />
		<rect x="267.5" y="403.5" width="67" height="67" stroke="white" />
		<rect x="334.5" y="403.5" width="67" height="67" stroke="white" />
		<rect x="401.5" y="403.5" width="67" height="67" stroke="white" />
		<rect x="468.5" y="403.5" width="67" height="67" stroke="white" />
		<rect x="535.5" y="403.5" width="67" height="67" stroke="white" />
		<rect x="602.5" y="403.5" width="67" height="67" stroke="white" />
		<rect x="669.5" y="403.5" width="67" height="67" stroke="white" />
		<rect x="736.5" y="403.5" width="67" height="67" stroke="white" />
		<rect x="803.5" y="403.5" width="67" height="67" stroke="white" />
		<rect x="870.5" y="403.5" width="67" height="67" stroke="white" />
		<rect x="937.5" y="403.5" width="67" height="67" stroke="white" />
		<rect x="1004.5" y="403.5" width="67" height="67" stroke="white" />
		<rect x="1071.5" y="403.5" width="67" height="67" stroke="white" />
		<rect x="1138.5" y="403.5" width="67" height="67" stroke="white" />
		<rect x="1205.5" y="403.5" width="67" height="67" stroke="white" />
	</mask>
	<g mask="url(#mask0_1_658)">
		<rect width="768" height="457" transform="translate(224 -8)" fill="url(#paint0_radial_1_658)" />
		<g opacity="0.4">
			<g opacity="0.6">
				<mask id="mask1_1_658" style="mask-type:luminance" maskUnits="userSpaceOnUse" x="561" y="164" width="17" height="10">
					<path d="M561.227 164.867L577.609 165.089L577.493 173.655L561.111 173.434L561.227 164.867Z" fill="white" />
				</mask>
				<g mask="url(#mask1_1_658)">
					<path d="M569.42 164.978L561.177 168.593L569.304 173.544L577.559 168.815L569.42 164.978Z" fill="white" />
				</g>
			</g>
			<g opacity="0.45">
				<mask id="mask2_1_658" style="mask-type:luminance" maskUnits="userSpaceOnUse" x="561" y="155" width="9" height="19">
					<path d="M561.36 155L569.553 155.111L569.304 173.544L561.111 173.433L561.36 155Z" fill="white" />
				</mask>
				<g mask="url(#mask2_1_658)">
					<path d="M561.177 168.593L569.304 173.544L569.553 155.111L561.177 168.593Z" fill="white" />
				</g>
			</g>
			<g opacity="0.8">
				<mask id="mask3_1_658" style="mask-type:luminance" maskUnits="userSpaceOnUse" x="569" y="155" width="9" height="19">
					<path d="M569.554 155.111L577.746 155.221L577.497 173.655L569.305 173.544L569.554 155.111Z" fill="white" />
				</mask>
				<g mask="url(#mask3_1_658)">
					<path d="M569.554 155.111L569.305 173.544L577.56 168.814L569.554 155.111Z" fill="white" />
				</g>
			</g>
			<g opacity="0.45">
				<mask id="mask4_1_658" style="mask-type:luminance" maskUnits="userSpaceOnUse" x="561" y="170" width="9" height="12">
					<path d="M561.156 170.145L569.348 170.256L569.193 181.798L561 181.687L561.156 170.145Z" fill="white" />
				</mask>
				<g mask="url(#mask4_1_658)">
					<path d="M561.156 170.145L569.193 181.798L569.283 175.096L561.156 170.145Z" fill="white" />
				</g>
			</g>
			<g opacity="0.8">
				<mask id="mask5_1_658" style="mask-type:luminance" maskUnits="userSpaceOnUse" x="569" y="170" width="9" height="12">
					<path d="M569.349 170.256L577.545 170.367L577.389 181.909L569.193 181.798L569.349 170.256Z" fill="white" />
				</mask>
				<g mask="url(#mask5_1_658)">
					<path d="M569.284 175.096L569.193 181.798L577.545 170.366L569.284 175.096Z" fill="white" />
				</g>
			</g>
		</g>
		<g opacity="0.4">
			<g opacity="0.6">
				<mask id="mask6_1_658" style="mask-type:luminance" maskUnits="userSpaceOnUse" x="360" y="232" width="17" height="10">
					<path d="M360.227 232.867L376.609 233.089L376.493 241.655L360.111 241.434L360.227 232.867Z" fill="white" />
				</mask>
				<g mask="url(#mask6_1_658)">
					<path d="M368.42 232.978L360.177 236.593L368.304 241.544L376.559 236.815L368.42 232.978Z" fill="white" />
				</g>
			</g>
			<g opacity="0.45">
				<mask id="mask7_1_658" style="mask-type:luminance" maskUnits="userSpaceOnUse" x="360" y="223" width="9" height="19">
					<path d="M360.36 223L368.553 223.111L368.304 241.544L360.111 241.433L360.36 223Z" fill="white" />
				</mask>
				<g mask="url(#mask7_1_658)">
					<path d="M360.177 236.593L368.304 241.544L368.553 223.111L360.177 236.593Z" fill="white" />
				</g>
			</g>
			<g opacity="0.8">
				<mask id="mask8_1_658" style="mask-type:luminance" maskUnits="userSpaceOnUse" x="368" y="223" width="9" height="19">
					<path d="M368.554 223.111L376.746 223.221L376.497 241.655L368.305 241.544L368.554 223.111Z" fill="white" />
				</mask>
				<g mask="url(#mask8_1_658)">
					<path d="M368.554 223.111L368.305 241.544L376.56 236.814L368.554 223.111Z" fill="white" />
				</g>
			</g>
			<g opacity="0.45">
				<mask id="mask9_1_658" style="mask-type:luminance" maskUnits="userSpaceOnUse" x="360" y="238" width="9" height="12">
					<path d="M360.156 238.145L368.348 238.256L368.193 249.798L360 249.687L360.156 238.145Z" fill="white" />
				</mask>
				<g mask="url(#mask9_1_658)">
					<path d="M360.156 238.145L368.193 249.798L368.283 243.096L360.156 238.145Z" fill="white" />
				</g>
			</g>
			<g opacity="0.8">
				<mask id="mask10_1_658" style="mask-type:luminance" maskUnits="userSpaceOnUse" x="368" y="238" width="9" height="12">
					<path d="M368.349 238.256L376.545 238.367L376.389 249.909L368.193 249.798L368.349 238.256Z" fill="white" />
				</mask>
				<g mask="url(#mask10_1_658)">
					<path d="M368.284 243.096L368.193 249.798L376.545 238.366L368.284 243.096Z" fill="white" />
				</g>
			</g>
		</g>
		<g opacity="0.4">
			<g opacity="0.6">
				<mask id="mask11_1_658" style="mask-type:luminance" maskUnits="userSpaceOnUse" x="695" y="232" width="17" height="10">
					<path d="M695.227 232.867L711.609 233.089L711.493 241.655L695.111 241.434L695.227 232.867Z" fill="white" />
				</mask>
				<g mask="url(#mask11_1_658)">
					<path d="M703.42 232.978L695.177 236.593L703.304 241.544L711.559 236.815L703.42 232.978Z" fill="white" />
				</g>
			</g>
			<g opacity="0.45">
				<mask id="mask12_1_658" style="mask-type:luminance" maskUnits="userSpaceOnUse" x="695" y="223" width="9" height="19">
					<path d="M695.36 223L703.553 223.111L703.304 241.544L695.111 241.433L695.36 223Z" fill="white" />
				</mask>
				<g mask="url(#mask12_1_658)">
					<path d="M695.177 236.593L703.304 241.544L703.553 223.111L695.177 236.593Z" fill="white" />
				</g>
			</g>
			<g opacity="0.8">
				<mask id="mask13_1_658" style="mask-type:luminance" maskUnits="userSpaceOnUse" x="703" y="223" width="9" height="19">
					<path d="M703.554 223.111L711.746 223.221L711.497 241.655L703.305 241.544L703.554 223.111Z" fill="white" />
				</mask>
				<g mask="url(#mask13_1_658)">
					<path d="M703.554 223.111L703.305 241.544L711.56 236.814L703.554 223.111Z" fill="white" />
				</g>
			</g>
			<g opacity="0.45">
				<mask id="mask14_1_658" style="mask-type:luminance" maskUnits="userSpaceOnUse" x="695" y="238" width="9" height="12">
					<path d="M695.156 238.145L703.348 238.256L703.193 249.798L695 249.687L695.156 238.145Z" fill="white" />
				</mask>
				<g mask="url(#mask14_1_658)">
					<path d="M695.156 238.145L703.193 249.798L703.283 243.096L695.156 238.145Z" fill="white" />
				</g>
			</g>
			<g opacity="0.8">
				<mask id="mask15_1_658" style="mask-type:luminance" maskUnits="userSpaceOnUse" x="703" y="238" width="9" height="12">
					<path d="M703.349 238.256L711.545 238.367L711.389 249.909L703.193 249.798L703.349 238.256Z" fill="white" />
				</mask>
				<g mask="url(#mask15_1_658)">
					<path d="M703.284 243.096L703.193 249.798L711.545 238.366L703.284 243.096Z" fill="white" />
				</g>
			</g>
		</g>
		<g opacity="0.4">
			<g opacity="0.6">
				<mask id="mask16_1_658" style="mask-type:luminance" maskUnits="userSpaceOnUse" x="829" y="165" width="17" height="10">
					<path d="M829.227 165.867L845.609 166.089L845.493 174.655L829.111 174.434L829.227 165.867Z" fill="white" />
				</mask>
				<g mask="url(#mask16_1_658)">
					<path d="M837.42 165.978L829.177 169.593L837.304 174.544L845.559 169.815L837.42 165.978Z" fill="white" />
				</g>
			</g>
			<g opacity="0.45">
				<mask id="mask17_1_658" style="mask-type:luminance" maskUnits="userSpaceOnUse" x="829" y="156" width="9" height="19">
					<path d="M829.36 156L837.553 156.111L837.304 174.544L829.111 174.433L829.36 156Z" fill="white" />
				</mask>
				<g mask="url(#mask17_1_658)">
					<path d="M829.177 169.593L837.304 174.544L837.553 156.111L829.177 169.593Z" fill="white" />
				</g>
			</g>
			<g opacity="0.8">
				<mask id="mask18_1_658" style="mask-type:luminance" maskUnits="userSpaceOnUse" x="837" y="156" width="9" height="19">
					<path d="M837.554 156.111L845.746 156.221L845.497 174.655L837.305 174.544L837.554 156.111Z" fill="white" />
				</mask>
				<g mask="url(#mask18_1_658)">
					<path d="M837.554 156.111L837.305 174.544L845.56 169.814L837.554 156.111Z" fill="white" />
				</g>
			</g>
			<g opacity="0.45">
				<mask id="mask19_1_658" style="mask-type:luminance" maskUnits="userSpaceOnUse" x="829" y="171" width="9" height="12">
					<path d="M829.156 171.145L837.348 171.256L837.193 182.798L829 182.687L829.156 171.145Z" fill="white" />
				</mask>
				<g mask="url(#mask19_1_658)">
					<path d="M829.156 171.145L837.193 182.798L837.283 176.096L829.156 171.145Z" fill="white" />
				</g>
			</g>
			<g opacity="0.8">
				<mask id="mask20_1_658" style="mask-type:luminance" maskUnits="userSpaceOnUse" x="837" y="171" width="9" height="12">
					<path d="M837.349 171.256L845.545 171.367L845.389 182.909L837.193 182.798L837.349 171.256Z" fill="white" />
				</mask>
				<g mask="url(#mask20_1_658)">
					<path d="M837.284 176.096L837.193 182.798L845.545 171.366L837.284 176.096Z" fill="white" />
				</g>
			</g>
		</g>
	</g>
	<defs>
		<radialGradient id="paint0_radial_1_658" cx="0" cy="0" r="1" gradientUnits="userSpaceOnUse" gradientTransform="translate(373.502 185.683) rotate(-90) scale(177.204 426.351)">
			<stop stop-color="#2E2E2E" />
			<stop offset="1" stop-color="#2E2E2E" stop-opacity="0" />
		</radialGradient>
	</defs>
</svg>
